<svg xmlns="http://www.w3.org/2000/svg" width="73" height="70" viewBox="0 0 73 70"><g transform="translate(-182 -175)" style="isolation:isolate"><rect width="73" height="70" rx="8" transform="translate(182 175)"/><circle cx="7" cy="7" r="7" transform="translate(234 220)" fill="#85bd21"/><path d="M18.378,44.258H0V0H18.378a18.784,18.784,0,0,1,2.888.507,24.24,24.24,0,0,1,2.971.941,22.528,22.528,0,0,1,3.421,1.672,19.015,19.015,0,0,1,6.49,6.356,19.445,19.445,0,0,1,1.238,2.366,21.3,21.3,0,0,1,.978,2.728,24.527,24.527,0,0,1,.665,3.116,29.48,29.48,0,0,1,.3,3.529c.013,1.042-.015,2.067-.083,3.046-.066.947-.171,1.878-.313,2.765-.137.857-.312,1.7-.521,2.5a23.367,23.367,0,0,1-.7,2.244,20.075,20.075,0,0,1-1.865,3.781,17.9,17.9,0,0,1-4.482,4.814,18.97,18.97,0,0,1-2.24,1.423,20.872,20.872,0,0,1-4.258,1.72,21.475,21.475,0,0,1-3.213.651C18.861,44.252,18.383,44.258,18.378,44.258Zm-4.483-34.6c-1.935,0-4.876.051-4.906.052v25.04h6.627a11.9,11.9,0,0,0,2.532-.346,10.705,10.705,0,0,0,3.581-1.6,9.505,9.505,0,0,0,1.733-1.558,10.1,10.1,0,0,0,1.455-2.221,12.821,12.821,0,0,0,1-3,18.929,18.929,0,0,0,.357-3.9,18.63,18.63,0,0,0-.4-3.89,12.674,12.674,0,0,0-1.039-2.982,9.685,9.685,0,0,0-3.246-3.722,10.241,10.241,0,0,0-1.836-.979A11.358,11.358,0,0,0,18.016,10a10.943,10.943,0,0,0-2.4-.3A10.932,10.932,0,0,0,13.895,9.655Z" transform="translate(195.522 188.196)" fill="#fff"/></g></svg>