<svg xmlns="http://www.w3.org/2000/svg" width="666" height="216" viewBox="0 0 666 216"><g transform="translate(-198 -320)" style="isolation:isolate"><rect width="666" height="216" rx="33" transform="translate(198 320)"/><g transform="translate(248.31 423.892)"><path d="M171.8,34a9.8,9.8,0,0,1,19.6,0,9.937,9.937,0,0,1-9.8,9.8,9.8,9.8,0,0,1-9.8-9.8" transform="translate(178.98 25.211)" fill="#86bc25"/><path d="M56.353,32.769c0,11.434-2.859,20.01-8.984,26.135s-14.7,9.188-25.727,9.188H0V.1H22.868C33.69.1,41.857,2.754,47.574,8.471c5.921,5.513,8.78,13.68,8.78,24.3m-18.784.613c0-6.33-1.225-10.821-3.675-13.884-2.246-2.859-6.125-4.492-11.026-4.492h-4.9V52.982h4.084c5.513,0,9.392-1.633,12.047-4.9,2.246-3.267,3.471-8.167,3.471-14.7" transform="translate(0 0.104)" fill="#fff"/><rect width="16.947" height="68.196" transform="translate(115.77)" fill="#fff"/><path d="M117.716,34.235c0,8.167-2.042,14.7-6.534,19.4s-10.617,6.942-18.376,6.942c-7.555,0-13.476-2.246-17.968-7.146S68.1,42.2,68.1,34.235c0-8.167,2.042-14.7,6.534-19.193C79.126,10.346,85.251,8.1,93.01,8.1a26.059,26.059,0,0,1,12.863,3.063,20.277,20.277,0,0,1,8.576,8.984c2.45,4.288,3.267,8.78,3.267,14.088m-32.056,0c0,4.492.613,7.555,1.633,9.8S90.151,47.3,93.01,47.3a5.748,5.748,0,0,0,5.717-3.267,25,25,0,0,0,1.633-9.8c0-4.492-.613-7.555-1.633-9.8a5.867,5.867,0,0,0-5.717-3.267,6.13,6.13,0,0,0-5.717,3.267c-1.021,2.246-1.633,5.309-1.633,9.8" transform="translate(70.946 8.439)" fill="#fff"/><rect width="16.947" height="50.636" transform="translate(195.604 17.355)" fill="#fff"/><rect width="16.947" height="11.434" transform="translate(195.604)" fill="#fff"/><path d="M135.273,54.191a27.435,27.435,0,0,0,8.167-1.633V65.421a29.869,29.869,0,0,1-6.534,2.042,38.046,38.046,0,0,1-7.35.613c-5.717,0-9.8-1.429-12.455-4.492-2.45-2.859-3.879-7.35-3.879-13.272V29.485H107.3V16.418h5.921V3.759L130.372.9V16.826H141.4V29.689H130.372v19.6c.408,3.471,1.838,4.9,4.9,4.9" transform="translate(111.784 0.938)" fill="#fff"/><path d="M154.673,54.191a27.435,27.435,0,0,0,8.167-1.633V65.421a29.87,29.87,0,0,1-6.534,2.042,38.046,38.046,0,0,1-7.35.613c-5.717,0-9.8-1.429-12.455-4.492-2.45-2.859-3.879-7.35-3.879-13.272V29.485H126.7V16.418h5.921V3.554L149.772.9V16.826H160.8V29.689H149.772v19.6c.2,3.471,1.838,4.9,4.9,4.9" transform="translate(131.995 0.938)" fill="#fff"/><path d="M188.053,14.021C183.969,9.938,178.252,8.1,170.9,8.1c-7.759,0-13.884,2.246-18.172,6.942s-6.33,11.23-6.33,19.805c0,8.167,2.246,14.7,6.738,19.193,4.7,4.492,11.026,6.738,19.193,6.738a49.133,49.133,0,0,0,10.209-.817,29.927,29.927,0,0,0,8.167-2.859l-2.45-11.434a31.633,31.633,0,0,1-13.68,2.654,12.521,12.521,0,0,1-7.759-2.246,8.622,8.622,0,0,1-2.858-6.738h30.423V31.376c-.2-7.555-2.45-13.272-6.33-17.355M163.959,28.11a9.934,9.934,0,0,1,2.246-6.125,6.794,6.794,0,0,1,5.1-1.838,6.926,6.926,0,0,1,5.309,2.042,9.751,9.751,0,0,1,2.042,5.921Z" transform="translate(152.518 8.439)" fill="#fff"/><path d="M71.753,14.021C67.465,9.938,61.952,8.1,54.6,8.1c-7.759,0-13.884,2.246-18.172,6.942S30.1,26.272,30.1,34.847c0,8.167,2.246,14.7,6.738,19.193,4.7,4.492,11.026,6.738,19.193,6.738a49.134,49.134,0,0,0,10.209-.817A29.927,29.927,0,0,0,74.407,57.1l-2.45-11.638A34.866,34.866,0,0,1,66.444,47.3a34.629,34.629,0,0,1-8.167.817,12.521,12.521,0,0,1-7.759-2.246,8.622,8.622,0,0,1-2.859-6.738H78.082V31.376c-.2-7.555-2.45-13.272-6.33-17.355M47.455,28.11A9.934,9.934,0,0,1,49.7,21.984a6.794,6.794,0,0,1,5.1-1.838,6.641,6.641,0,0,1,5.309,2.042,9.751,9.751,0,0,1,2.042,5.921Z" transform="translate(31.358 8.439)" fill="#fff"/></g><path d="M9.718-5.676v-19.35h4.816a10.9,10.9,0,0,1,4.192.709,6.579,6.579,0,0,1,2.731,2.043,8.364,8.364,0,0,1,1.483,3.2,17.9,17.9,0,0,1,.452,4.193,12.58,12.58,0,0,1-.645,4.3,7.887,7.887,0,0,1-1.72,2.859,6.246,6.246,0,0,1-2.451,1.569,8.67,8.67,0,0,1-2.838.473ZM2.967-30.7V0H16.211a14.7,14.7,0,0,0,6.128-1.183,12.19,12.19,0,0,0,4.343-3.246,13.625,13.625,0,0,0,2.6-4.9,21.269,21.269,0,0,0,.86-6.192,19.133,19.133,0,0,0-1.053-6.665,13.1,13.1,0,0,0-2.924-4.73,11.994,11.994,0,0,0-4.429-2.838,15.809,15.809,0,0,0-5.526-.946Zm37.5,5.031V-30.7H34.357v5.031Zm-6.106,3.44V0h6.106V-22.231ZM55.642-5.246a4.325,4.325,0,0,1-2.365-.6A4.772,4.772,0,0,1,51.75-7.4a6.451,6.451,0,0,1-.817-2.128,12.139,12.139,0,0,1-.236-2.387,9.985,9.985,0,0,1,.279-2.387,5.892,5.892,0,0,1,.9-2.021,4.657,4.657,0,0,1,1.548-1.4,4.477,4.477,0,0,1,2.214-.516,5.017,5.017,0,0,1,2.494.559,4.452,4.452,0,0,1,1.591,1.505A6.5,6.5,0,0,1,60.587-14a12.609,12.609,0,0,1,.258,2.6,8.111,8.111,0,0,1-.323,2.3,6.1,6.1,0,0,1-.967,1.957,4.767,4.767,0,0,1-1.634,1.376A4.856,4.856,0,0,1,55.642-5.246ZM66.65-1.419V-22.231H60.845v2.967h-.086a6.641,6.641,0,0,0-2.774-2.752,8.594,8.594,0,0,0-3.848-.817,8.974,8.974,0,0,0-4.106.9,8.832,8.832,0,0,0-2.989,2.43,10.846,10.846,0,0,0-1.827,3.526,13.858,13.858,0,0,0-.624,4.149A16.919,16.919,0,0,0,45.129-7.5a10.046,10.046,0,0,0,1.7,3.569,8.159,8.159,0,0,0,2.967,2.408,9.712,9.712,0,0,0,4.3.882,9.122,9.122,0,0,0,3.848-.839,6.045,6.045,0,0,0,2.817-2.6h.086v2.924a6.07,6.07,0,0,1-1.14,3.913A4.433,4.433,0,0,1,55.943,4.3a6.019,6.019,0,0,1-2.881-.667,3.484,3.484,0,0,1-1.677-2.387H45.322a6.42,6.42,0,0,0,1.053,3.247A7.608,7.608,0,0,0,48.7,6.708a10.587,10.587,0,0,0,3.1,1.268,14.221,14.221,0,0,0,3.332.408,15.016,15.016,0,0,0,6.106-1.032,9.351,9.351,0,0,0,3.483-2.516,7.528,7.528,0,0,0,1.57-3.2A14.885,14.885,0,0,0,66.65-1.419ZM77.83-25.671V-30.7H71.724v5.031Zm-6.106,3.44V0H77.83V-22.231Zm18.662,0V-28.9H84.28v6.665h-3.7v4.085h3.7V-5.031a5.681,5.681,0,0,0,.559,2.709A3.984,3.984,0,0,0,86.365-.731,6.338,6.338,0,0,0,88.6.022a17.825,17.825,0,0,0,2.688.193q.9,0,1.849-.043A14.53,14.53,0,0,0,94.858,0V-4.73a8.555,8.555,0,0,1-.9.129q-.473.043-.989.043A2.988,2.988,0,0,1,90.9-5.074a2.988,2.988,0,0,1-.516-2.064V-18.146h4.472v-4.085Zm7.138,6.837A7.093,7.093,0,0,1,98.6-18.963a7.32,7.32,0,0,1,2.408-2.279,10.493,10.493,0,0,1,3.29-1.226,18.7,18.7,0,0,1,3.676-.366,24.916,24.916,0,0,1,3.4.236,10.392,10.392,0,0,1,3.139.924,6.185,6.185,0,0,1,2.322,1.913,5.347,5.347,0,0,1,.9,3.247V-4.945a23.231,23.231,0,0,0,.172,2.881,5.208,5.208,0,0,0,.6,2.064h-6.192a8.762,8.762,0,0,1-.279-1.053,9.174,9.174,0,0,1-.15-1.1,7.957,7.957,0,0,1-3.44,2.107,13.807,13.807,0,0,1-4.042.6,10.92,10.92,0,0,1-2.967-.387,6.8,6.8,0,0,1-2.408-1.2A5.6,5.6,0,0,1,97.416-3.1a6.978,6.978,0,0,1-.58-2.967A6.482,6.482,0,0,1,97.5-9.181a5.573,5.573,0,0,1,1.72-1.957,7.706,7.706,0,0,1,2.408-1.1,25.706,25.706,0,0,1,2.73-.58q1.376-.215,2.709-.344a16.291,16.291,0,0,0,2.365-.387,4.123,4.123,0,0,0,1.634-.753,1.652,1.652,0,0,0,.559-1.44,3.24,3.24,0,0,0-.323-1.57,2.372,2.372,0,0,0-.86-.9,3.383,3.383,0,0,0-1.247-.43,10.2,10.2,0,0,0-1.527-.108,4.635,4.635,0,0,0-2.838.774,3.455,3.455,0,0,0-1.2,2.58Zm14.1,4.515a2.739,2.739,0,0,1-.967.537,9.881,9.881,0,0,1-1.247.323q-.666.129-1.4.215t-1.462.215a11.026,11.026,0,0,0-1.354.344,4,4,0,0,0-1.161.58,2.76,2.76,0,0,0-.8.924,2.974,2.974,0,0,0-.3,1.419,2.872,2.872,0,0,0,.3,1.376,2.308,2.308,0,0,0,.817.882,3.448,3.448,0,0,0,1.2.451,7.685,7.685,0,0,0,1.419.129,5.4,5.4,0,0,0,2.795-.6,4.027,4.027,0,0,0,1.462-1.44,4.607,4.607,0,0,0,.58-1.7,11.669,11.669,0,0,0,.107-1.376ZM122.636-30.7V0h6.106V-30.7Zm23.521,0V0h6.751V-30.7ZM165.593-5.676v-19.35h4.816a10.9,10.9,0,0,1,4.193.709,6.579,6.579,0,0,1,2.73,2.043,8.364,8.364,0,0,1,1.484,3.2,17.9,17.9,0,0,1,.451,4.193,12.58,12.58,0,0,1-.645,4.3,7.887,7.887,0,0,1-1.72,2.859,6.246,6.246,0,0,1-2.451,1.569,8.67,8.67,0,0,1-2.838.473ZM158.842-30.7V0h13.244a14.7,14.7,0,0,0,6.128-1.183,12.19,12.19,0,0,0,4.343-3.246,13.625,13.625,0,0,0,2.6-4.9,21.269,21.269,0,0,0,.86-6.192,19.133,19.133,0,0,0-1.053-6.665,13.1,13.1,0,0,0-2.924-4.73,11.994,11.994,0,0,0-4.429-2.838,15.81,15.81,0,0,0-5.525-.946Z" transform="translate(636 490)" fill="#fff"/><path d="M7.568-10.191H1.032a10.14,10.14,0,0,0,1.032,4.9,9.665,9.665,0,0,0,2.9,3.4A12.383,12.383,0,0,0,9.181.065,19.4,19.4,0,0,0,14.1.688a18.9,18.9,0,0,0,5.525-.731,11.684,11.684,0,0,0,4-2.043A8.5,8.5,0,0,0,26.058-5.2a9.382,9.382,0,0,0,.817-3.913,7.527,7.527,0,0,0-1.1-4.235A9.159,9.159,0,0,0,23.177-16a11.436,11.436,0,0,0-3.031-1.441q-1.527-.452-2.387-.623-2.881-.731-4.665-1.2a17.306,17.306,0,0,1-2.8-.946,3.07,3.07,0,0,1-1.354-1.032A2.759,2.759,0,0,1,8.6-22.7a2.887,2.887,0,0,1,.43-1.634,3.735,3.735,0,0,1,1.1-1.075,4.371,4.371,0,0,1,1.484-.6,7.912,7.912,0,0,1,1.634-.172,11.515,11.515,0,0,1,2.3.215,5.545,5.545,0,0,1,1.871.731,3.8,3.8,0,0,1,1.311,1.419,5.428,5.428,0,0,1,.58,2.279h6.536a9.429,9.429,0,0,0-1.011-4.537,8.81,8.81,0,0,0-2.73-3.074A11.53,11.53,0,0,0,18.168-30.9a19.532,19.532,0,0,0-4.623-.538,15.731,15.731,0,0,0-4.128.559,11.525,11.525,0,0,0-3.7,1.72,9.156,9.156,0,0,0-2.644,2.9,8.039,8.039,0,0,0-1.01,4.107,7.507,7.507,0,0,0,.8,3.59,7.594,7.594,0,0,0,2.086,2.472,11.524,11.524,0,0,0,2.924,1.613,29.4,29.4,0,0,0,3.354,1.053q1.677.473,3.311.86a20.815,20.815,0,0,1,2.924.9,6.309,6.309,0,0,1,2.085,1.29,2.693,2.693,0,0,1,.8,2.021,2.967,2.967,0,0,1-.6,1.914,4.222,4.222,0,0,1-1.5,1.182,6.733,6.733,0,0,1-1.935.581,13.449,13.449,0,0,1-1.935.15,10.263,10.263,0,0,1-2.58-.323,6.422,6.422,0,0,1-2.171-.989A4.885,4.885,0,0,1,8.127-7.568,5.631,5.631,0,0,1,7.568-10.191Zm28.939-15.48V-30.7H30.4v5.031ZM30.4-22.231V0h6.106V-22.231ZM51.686-5.246a4.325,4.325,0,0,1-2.365-.6A4.772,4.772,0,0,1,47.794-7.4a6.451,6.451,0,0,1-.817-2.128,12.139,12.139,0,0,1-.236-2.387,9.985,9.985,0,0,1,.279-2.387,5.892,5.892,0,0,1,.9-2.021,4.657,4.657,0,0,1,1.548-1.4,4.477,4.477,0,0,1,2.214-.516,5.017,5.017,0,0,1,2.494.559,4.452,4.452,0,0,1,1.591,1.505A6.5,6.5,0,0,1,56.631-14a12.609,12.609,0,0,1,.258,2.6,8.111,8.111,0,0,1-.323,2.3A6.1,6.1,0,0,1,55.6-7.138a4.767,4.767,0,0,1-1.634,1.376A4.856,4.856,0,0,1,51.686-5.246ZM62.694-1.419V-22.231H56.889v2.967H56.8a6.641,6.641,0,0,0-2.774-2.752,8.594,8.594,0,0,0-3.848-.817,8.974,8.974,0,0,0-4.106.9,8.832,8.832,0,0,0-2.989,2.43,10.846,10.846,0,0,0-1.827,3.526,13.858,13.858,0,0,0-.624,4.149A16.919,16.919,0,0,0,41.173-7.5a10.046,10.046,0,0,0,1.7,3.569,8.159,8.159,0,0,0,2.967,2.408,9.712,9.712,0,0,0,4.3.882,9.122,9.122,0,0,0,3.848-.839,6.045,6.045,0,0,0,2.817-2.6h.086v2.924a6.07,6.07,0,0,1-1.14,3.913A4.433,4.433,0,0,1,51.987,4.3a6.019,6.019,0,0,1-2.881-.667,3.484,3.484,0,0,1-1.677-2.387H41.366a6.42,6.42,0,0,0,1.053,3.247,7.608,7.608,0,0,0,2.322,2.214,10.587,10.587,0,0,0,3.1,1.268,14.221,14.221,0,0,0,3.332.408,15.016,15.016,0,0,0,6.106-1.032,9.351,9.351,0,0,0,3.483-2.516,7.528,7.528,0,0,0,1.569-3.2A14.885,14.885,0,0,0,62.694-1.419Zm4.9-20.812V0H73.7V-11.653q0-3.4,1.118-4.881a4.23,4.23,0,0,1,3.612-1.483,3.331,3.331,0,0,1,3.053,1.354,7.791,7.791,0,0,1,.86,4.107V0h6.106V-13.674a17.918,17.918,0,0,0-.366-3.763,7.156,7.156,0,0,0-1.269-2.881,5.961,5.961,0,0,0-2.472-1.849,10.37,10.37,0,0,0-4.021-.667,8.7,8.7,0,0,0-3.784.882,7.006,7.006,0,0,0-3.01,2.816H73.4v-3.1ZM113.95,0V-22.231h-6.106v11.653q0,3.4-1.118,4.881a4.23,4.23,0,0,1-3.612,1.484,3.331,3.331,0,0,1-3.053-1.355,7.791,7.791,0,0,1-.86-4.107V-22.231H93.1V-8.557a17.918,17.918,0,0,0,.366,3.763,7.156,7.156,0,0,0,1.269,2.881A5.8,5.8,0,0,0,97.2-.086a10.68,10.68,0,0,0,4.021.645,8.884,8.884,0,0,0,3.784-.86,6.869,6.869,0,0,0,3.01-2.795h.129V0Zm15.867-4a4.869,4.869,0,0,1-2.494-.6,4.831,4.831,0,0,1-1.656-1.569,6.777,6.777,0,0,1-.9-2.257,12.352,12.352,0,0,1-.28-2.623,13.563,13.563,0,0,1,.258-2.666A6.692,6.692,0,0,1,125.625-16a5.02,5.02,0,0,1,1.634-1.612,4.71,4.71,0,0,1,2.516-.624,4.623,4.623,0,0,1,2.473.624,5.15,5.15,0,0,1,1.656,1.634,6.984,6.984,0,0,1,.924,2.3,12.352,12.352,0,0,1,.279,2.623,13.342,13.342,0,0,1-.258,2.623,6.465,6.465,0,0,1-.882,2.257A4.894,4.894,0,0,1,132.333-4.6,4.842,4.842,0,0,1,129.817-4ZM118.594-22.231V7.783H124.7V-2.752h.086A7.2,7.2,0,0,0,127.646-.28a8.656,8.656,0,0,0,3.806.839,9.185,9.185,0,0,0,4.279-.946,9.054,9.054,0,0,0,3.053-2.537,10.947,10.947,0,0,0,1.827-3.655,15.279,15.279,0,0,0,.6-4.3,16.9,16.9,0,0,0-.6-4.537,11.077,11.077,0,0,0-1.849-3.806,9.322,9.322,0,0,0-3.139-2.623,9.629,9.629,0,0,0-4.515-.989,8.706,8.706,0,0,0-3.784.817,6.716,6.716,0,0,0-2.838,2.623H124.4v-2.838Zm39.56,4.085V0h6.106V-18.146h4.214v-4.085H164.26v-1.333a2.852,2.852,0,0,1,.537-1.957,2.342,2.342,0,0,1,1.785-.58,18.765,18.765,0,0,1,2.236.129V-30.53q-.774-.043-1.591-.108t-1.634-.065q-3.741,0-5.59,1.892a6.661,6.661,0,0,0-1.849,4.859v1.72H154.5v4.085Zm18.4,7.052a13.342,13.342,0,0,1,.258-2.623A6.692,6.692,0,0,1,177.7-16a4.951,4.951,0,0,1,1.656-1.612,4.914,4.914,0,0,1,2.58-.624,5.03,5.03,0,0,1,2.6.624A4.889,4.889,0,0,1,186.211-16a6.692,6.692,0,0,1,.882,2.279,13.341,13.341,0,0,1,.258,2.623,13.019,13.019,0,0,1-.258,2.6,6.93,6.93,0,0,1-.882,2.279A4.641,4.641,0,0,1,184.535-4.6a5.174,5.174,0,0,1-2.6.6,5.053,5.053,0,0,1-2.58-.6A4.7,4.7,0,0,1,177.7-6.214a6.93,6.93,0,0,1-.882-2.279A13.02,13.02,0,0,1,176.558-11.094Zm-6.106,0a13.471,13.471,0,0,0,.817,4.816A10.447,10.447,0,0,0,173.591-2.6,10.158,10.158,0,0,0,177.2-.258a13,13,0,0,0,4.73.817,13.168,13.168,0,0,0,4.751-.817A10.12,10.12,0,0,0,190.318-2.6a10.447,10.447,0,0,0,2.322-3.676,13.471,13.471,0,0,0,.817-4.816,13.647,13.647,0,0,0-.817-4.837,10.41,10.41,0,0,0-2.322-3.7,10.363,10.363,0,0,0-3.633-2.365,12.866,12.866,0,0,0-4.751-.839,12.7,12.7,0,0,0-4.73.839,10.405,10.405,0,0,0-3.612,2.365,10.411,10.411,0,0,0-2.322,3.7A13.647,13.647,0,0,0,170.452-11.094Zm26.961-11.137V0h6.106V-10.019a12.288,12.288,0,0,1,.3-2.8,6.121,6.121,0,0,1,1.01-2.257A4.915,4.915,0,0,1,206.7-16.6a6.505,6.505,0,0,1,2.838-.559,10.9,10.9,0,0,1,1.161.064q.6.065,1.032.151v-5.676a4.762,4.762,0,0,0-1.333-.215,7.291,7.291,0,0,0-2.236.344,8.194,8.194,0,0,0-2.021.967,7.606,7.606,0,0,0-1.677,1.505A7.51,7.51,0,0,0,203.3-18.1h-.086v-4.128Zm28.423,6.837a7.093,7.093,0,0,1,1.075-3.569,7.32,7.32,0,0,1,2.408-2.279,10.493,10.493,0,0,1,3.29-1.226,18.7,18.7,0,0,1,3.676-.366,24.917,24.917,0,0,1,3.4.236,10.392,10.392,0,0,1,3.139.924,6.185,6.185,0,0,1,2.322,1.913,5.347,5.347,0,0,1,.9,3.247V-4.945a23.23,23.23,0,0,0,.172,2.881A5.208,5.208,0,0,0,246.82,0h-6.192a8.762,8.762,0,0,1-.279-1.053,9.174,9.174,0,0,1-.151-1.1,7.957,7.957,0,0,1-3.44,2.107,13.807,13.807,0,0,1-4.042.6,10.92,10.92,0,0,1-2.967-.387,6.8,6.8,0,0,1-2.408-1.2A5.6,5.6,0,0,1,225.729-3.1a6.979,6.979,0,0,1-.58-2.967,6.482,6.482,0,0,1,.666-3.117,5.573,5.573,0,0,1,1.72-1.957,7.706,7.706,0,0,1,2.408-1.1,25.706,25.706,0,0,1,2.73-.58q1.376-.215,2.709-.344a16.291,16.291,0,0,0,2.365-.387,4.123,4.123,0,0,0,1.634-.753,1.652,1.652,0,0,0,.559-1.44,3.24,3.24,0,0,0-.322-1.57,2.372,2.372,0,0,0-.86-.9,3.383,3.383,0,0,0-1.247-.43,10.2,10.2,0,0,0-1.526-.108,4.635,4.635,0,0,0-2.838.774,3.455,3.455,0,0,0-1.2,2.58Zm14.1,4.515a2.739,2.739,0,0,1-.967.537,9.882,9.882,0,0,1-1.247.323q-.667.129-1.4.215t-1.462.215a11.027,11.027,0,0,0-1.354.344,4,4,0,0,0-1.161.58,2.76,2.76,0,0,0-.8.924,2.974,2.974,0,0,0-.3,1.419,2.872,2.872,0,0,0,.3,1.376,2.308,2.308,0,0,0,.817.882,3.448,3.448,0,0,0,1.2.451A7.685,7.685,0,0,0,235-3.483a5.4,5.4,0,0,0,2.795-.6,4.026,4.026,0,0,0,1.462-1.44,4.607,4.607,0,0,0,.581-1.7A11.667,11.667,0,0,0,239.94-8.6Z" transform="translate(247 392)" fill="#fff"/></g></svg>