<?xml version="1.0" standalone="no"?>
<!DOCTYPE svg PUBLIC "-//W3C//DTD SVG 20010904//EN"
 "http://www.w3.org/TR/2001/REC-SVG-20010904/DTD/svg10.dtd">
<svg version="1.0" xmlns="http://www.w3.org/2000/svg"
 width="288.000000pt" height="288.000000pt" viewBox="0 0 288.000000 288.000000"
 preserveAspectRatio="xMidYMid meet">
<metadata>
Created by potrace 1.14, written by Peter Selinger 2001-2017
</metadata>
<g transform="translate(0.000000,288.000000) scale(0.100000,-0.100000)"
fill="#000000" stroke="none">
<path d="M1290 2630 c-461 -64 -839 -375 -984 -810 -39 -116 -66 -273 -66
-377 1 -325 151 -669 382 -876 169 -152 318 -232 537 -290 107 -28 129 -30
281 -30 152 0 174 2 281 30 171 45 301 106 435 204 252 184 428 483 469 797
18 135 18 201 0 330 -71 500 -452 904 -950 1007 -96 20 -295 27 -385 15z
m-190 -369 c19 -10 50 -37 68 -60 31 -42 32 -45 32 -147 l0 -104 388 0 c356 0
390 -2 428 -19 59 -27 89 -79 89 -156 0 -74 -29 -126 -86 -155 -36 -19 -60
-20 -430 -20 l-391 0 4 -152 c4 -126 8 -163 26 -208 26 -67 83 -124 137 -139
24 -7 151 -11 323 -11 258 0 286 -2 320 -19 128 -65 133 -222 10 -311 l-43
-31 -330 3 c-304 4 -336 6 -400 26 -220 68 -342 179 -407 370 -23 66 -23 72
-23 553 l0 485 25 36 c56 83 165 107 260 59z"/>
<path d="M970 2183 c-8 -3 -25 -15 -37 -26 l-23 -20 0 -441 c0 -479 4 -521 56
-617 36 -64 114 -141 182 -177 111 -59 148 -64 483 -69 216 -4 313 -2 328 6
28 15 54 67 46 92 -4 11 -16 29 -28 39 -20 19 -36 20 -312 20 -333 0 -364 5
-437 69 -50 45 -100 137 -117 219 -6 29 -11 136 -11 237 l0 185 430 0 431 0
26 26 c20 20 24 31 19 57 -3 17 -14 39 -23 49 -15 17 -43 18 -450 18 l-433 0
0 136 c0 78 -5 144 -11 156 -17 32 -82 55 -119 41z"/>
</g>
</svg>
